<svg xmlns="http://www.w3.org/2000/svg" width="900" height="270" viewBox="0 0 900 270" preserveAspectRatio="none">
  <defs>
    <linearGradient id="d" x1="0" y1="0" x2="1" y2="1">
      <stop offset="0%" stop-color="#0a1528"/>
      <stop offset="100%" stop-color="#08152a"/>
    </linearGradient>
  </defs>
  <rect width="900" height="270" fill="url(#d)"/>
  <rect x="12" y="12" width="876" height="246" rx="10" fill="none" stroke="#8af0ff30" stroke-width="2"/>
  <g fill="#a7ecff88">
    <rect x="30" y="30" width="320" height="70" rx="7"/>
    <rect x="440" y="30" width="220" height="56" rx="7"/>
    <rect x="30" y="180" width="220" height="50" rx="7"/>
    <circle cx="760" cy="190" r="9"/>
  </g>
  <g stroke="#90e7ff66" stroke-width="2">
    <line x1="30" y1="130" x2="870" y2="130"/>
    <path d="M30 130 160 160 280 115 420 140 560 90 760 120"/>
    <path d="M70 190 C160 170 230 220 360 200 500 180 620 220 830 198"/>
  </g>
</svg>
