<svg xmlns="http://www.w3.org/2000/svg" width="900" height="900" viewBox="0 0 900 900" preserveAspectRatio="none">
  <defs>
    <linearGradient id="g" x1="0" y1="0" x2="1" y2="1">
      <stop offset="0%" stop-color="#031124"/>
      <stop offset="100%" stop-color="#071734"/>
    </linearGradient>
  </defs>
  <rect width="900" height="900" fill="url(#g)"/>
  <g stroke="#6ec3ff" stroke-width="2" opacity="0.45">
    <rect x="40" y="40" width="820" height="820" fill="none"/>
    <line x1="40" y1="130" x2="860" y2="130"/>
    <line x1="40" y1="300" x2="860" y2="300"/>
    <line x1="40" y1="470" x2="860" y2="470"/>
    <line x1="40" y1="640" x2="860" y2="640"/>
    <line x1="130" y1="40" x2="130" y2="860"/>
    <line x1="300" y1="40" x2="300" y2="860"/>
    <line x1="470" y1="40" x2="470" y2="860"/>
    <line x1="640" y1="40" x2="640" y2="860"/>
  </g>
  <g fill="#7fffff" opacity="0.75">
    <circle cx="170" cy="220" r="18"/>
    <circle cx="450" cy="180" r="22"/>
    <circle cx="730" cy="260" r="15"/>
    <circle cx="220" cy="690" r="14"/>
    <circle cx="670" cy="730" r="16"/>
  </g>
  <g stroke="#79ffce" stroke-width="3" fill="none" opacity="0.8">
    <polyline points="150,340 250,290 390,350 520,300 690,360 780,320"/>
    <path d="M480 760 C520 700 560 760 640 700"/>
  </g>
</svg>
